<?xml version="1.0" encoding="utf-8" standalone="no"?>
<!DOCTYPE svg PUBLIC "-//W3C//DTD SVG 1.1//EN"
  "http://www.w3.org/Graphics/SVG/1.1/DTD/svg11.dtd">
<svg xmlns:xlink="http://www.w3.org/1999/xlink" width="194.4pt" height="734.4pt" viewBox="0 0 194.4 734.4" xmlns="http://www.w3.org/2000/svg" version="1.1">
 <metadata>
  <rdf:RDF xmlns:dc="http://purl.org/dc/elements/1.1/" xmlns:cc="http://creativecommons.org/ns#" xmlns:rdf="http://www.w3.org/1999/02/22-rdf-syntax-ns#">
   <cc:Work>
    <dc:type rdf:resource="http://purl.org/dc/dcmitype/StillImage"/>
    <dc:date>2026-02-13T10:17:41.215306</dc:date>
    <dc:format>image/svg+xml</dc:format>
    <dc:creator>
     <cc:Agent>
      <dc:title>Matplotlib v3.10.8, https://matplotlib.org/</dc:title>
     </cc:Agent>
    </dc:creator>
   </cc:Work>
  </rdf:RDF>
 </metadata>
 <defs>
  <style type="text/css">*{stroke-linejoin: round; stroke-linecap: butt}</style>
 </defs>
 <g id="figure_1">
  <g id="patch_1">
   <path d="M 0 734.4 
L 194.4 734.4 
L 194.4 0 
L 0 0 
L 0 734.4 
z
" style="fill: none; opacity: 0"/>
  </g>
  <g id="axes_1">
   <g id="patch_2">
    <path d="M 7.2 187.2 
L 187.2 187.2 
L 187.2 7.2 
L 7.2 7.2 
L 7.2 187.2 
z
" clip-path="url(#pe48acade34)" style="fill: none; stroke: #ffffff; stroke-width: 1.2; stroke-linejoin: miter"/>
   </g>
   <g id="patch_3">
    <path d="M 21.6 79.2 
L 61.2 79.2 
L 61.2 39.6 
L 21.6 39.6 
L 21.6 79.2 
z
" clip-path="url(#pe48acade34)" style="fill: none; stroke: #ffffff; stroke-width: 1.2; stroke-linejoin: miter"/>
   </g>
   <g id="patch_4">
    <path d="M 75.6 136.8 
L 133.2 136.8 
L 133.2 79.2 
L 75.6 79.2 
L 75.6 136.8 
z
" clip-path="url(#pe48acade34)" style="fill: none; stroke: #ffffff; stroke-width: 1.2; stroke-linejoin: miter"/>
   </g>
   <g id="patch_5">
    <path d="M 144 176.4 
L 172.8 176.4 
L 172.8 147.6 
L 144 147.6 
L 144 176.4 
z
" clip-path="url(#pe48acade34)" style="fill: none; stroke: #ffffff; stroke-width: 1.2; stroke-linejoin: miter"/>
   </g>
   <g id="patch_6">
    <path d="M 7.2 457.2 
L 187.2 457.2 
L 187.2 277.2 
L 7.2 277.2 
L 7.2 457.2 
z
" clip-path="url(#pe48acade34)" style="fill: none; stroke: #ffffff; stroke-width: 1.2; stroke-linejoin: miter"/>
   </g>
   <g id="patch_7">
    <path d="M 34.2 442.8 
L 151.2 442.8 
L 151.2 385.2 
L 34.2 385.2 
L 34.2 442.8 
z
" clip-path="url(#pe48acade34)" style="fill: none; stroke: #ffffff; stroke-width: 1.2; stroke-linejoin: miter"/>
   </g>
   <g id="patch_8">
    <path d="M 34.2 358.2 
L 151.2 358.2 
L 151.2 300.6 
L 34.2 300.6 
L 34.2 358.2 
z
" clip-path="url(#pe48acade34)" style="fill: none; stroke: #ffffff; stroke-width: 1.2; stroke-linejoin: miter"/>
   </g>
   <g id="patch_9">
    <path d="M 7.2 727.2 
L 187.2 727.2 
L 187.2 547.2 
L 7.2 547.2 
L 7.2 727.2 
z
" clip-path="url(#pe48acade34)" style="fill: none; stroke: #ffffff; stroke-width: 1.2; stroke-linejoin: miter"/>
   </g>
   <g id="patch_10">
    <path d="M 21.6 619.2 
L 61.2 619.2 
L 61.2 579.6 
L 21.6 579.6 
L 21.6 619.2 
z
" clip-path="url(#pe48acade34)" style="fill: none; stroke: #ffffff; stroke-width: 1.2; stroke-linejoin: miter"/>
   </g>
   <g id="patch_11">
    <path d="M 84.24 672.192 
L 121.68 672.192 
L 121.68 653.76 
L 84.24 653.76 
L 84.24 672.192 
z
" clip-path="url(#pe48acade34)" style="fill: none; stroke: #ffffff; stroke-width: 1.2; stroke-linejoin: miter"/>
   </g>
   <g id="patch_12">
    <path d="M 84.24 645.12 
L 121.68 645.12 
L 121.68 626.688 
L 84.24 626.688 
L 84.24 645.12 
z
" clip-path="url(#pe48acade34)" style="fill: none; stroke: #ffffff; stroke-width: 1.2; stroke-linejoin: miter"/>
   </g>
   <g id="patch_13">
    <path d="M 144 716.4 
L 172.8 716.4 
L 172.8 687.6 
L 144 687.6 
L 144 716.4 
z
" clip-path="url(#pe48acade34)" style="fill: none; stroke: #ffffff; stroke-width: 1.2; stroke-linejoin: miter"/>
   </g>
   <g id="text_1">
    <!-- 1 -->
    <g style="fill: #ffffff" transform="translate(38.855 61.6075) scale(0.08 -0.08)">
     <defs>
      <path id="DejaVuSerif-31" d="M 909 0 
L 909 331 
L 1722 331 
L 1722 4213 
L 781 3603 
L 781 4013 
L 1919 4750 
L 2350 4750 
L 2350 331 
L 3163 331 
L 3163 0 
L 909 0 
z
" transform="scale(0.015625)"/>
     </defs>
     <use xlink:href="#DejaVuSerif-31"/>
    </g>
   </g>
   <g id="text_2">
    <!-- 2 -->
    <g style="fill: #ffffff" transform="translate(101.855 110.2075) scale(0.08 -0.08)">
     <defs>
      <path id="DejaVuSerif-32" d="M 819 3553 
L 469 3553 
L 469 4384 
Q 803 4563 1142 4656 
Q 1481 4750 1806 4750 
Q 2534 4750 2956 4397 
Q 3378 4044 3378 3438 
Q 3378 2753 2422 1800 
Q 2347 1728 2309 1691 
L 1131 513 
L 3078 513 
L 3078 1088 
L 3444 1088 
L 3444 0 
L 434 0 
L 434 341 
L 1850 1753 
Q 2319 2222 2519 2614 
Q 2719 3006 2719 3438 
Q 2719 3909 2473 4175 
Q 2228 4441 1797 4441 
Q 1350 4441 1106 4219 
Q 863 3997 819 3553 
z
" transform="scale(0.015625)"/>
     </defs>
     <use xlink:href="#DejaVuSerif-32"/>
    </g>
   </g>
   <g id="text_3">
    <!-- 3 -->
    <g style="fill: #ffffff" transform="translate(155.855 164.2075) scale(0.08 -0.08)">
     <defs>
      <path id="DejaVuSerif-33" d="M 622 4469 
Q 988 4606 1323 4678 
Q 1659 4750 1953 4750 
Q 2638 4750 3022 4454 
Q 3406 4159 3406 3634 
Q 3406 3213 3140 2930 
Q 2875 2647 2388 2547 
Q 2963 2466 3280 2130 
Q 3597 1794 3597 1259 
Q 3597 606 3158 257 
Q 2719 -91 1894 -91 
Q 1528 -91 1179 -12 
Q 831 66 488 225 
L 488 1131 
L 838 1131 
Q 869 681 1141 450 
Q 1413 219 1906 219 
Q 2384 219 2661 495 
Q 2938 772 2938 1253 
Q 2938 1803 2653 2086 
Q 2369 2369 1819 2369 
L 1522 2369 
L 1522 2688 
L 1678 2688 
Q 2225 2688 2498 2914 
Q 2772 3141 2772 3597 
Q 2772 4006 2547 4223 
Q 2322 4441 1900 4441 
Q 1478 4441 1245 4241 
Q 1013 4041 972 3647 
L 622 3647 
L 622 4469 
z
" transform="scale(0.015625)"/>
     </defs>
     <use xlink:href="#DejaVuSerif-33"/>
    </g>
   </g>
   <g id="text_4">
    <!-- $\circ_2$ -->
    <g style="fill: #ffffff" transform="translate(87.21 237.166875) scale(0.18 -0.18)">
     <defs>
      <path id="DejaVuSans-2218" d="M 2000 2619 
Q 1750 2619 1578 2445 
Q 1406 2272 1406 2022 
Q 1406 1775 1578 1605 
Q 1750 1435 2000 1435 
Q 2250 1435 2422 1605 
Q 2594 1775 2594 2022 
Q 2594 2269 2420 2444 
Q 2247 2619 2000 2619 
z
M 2000 3022 
Q 2200 3022 2384 2945 
Q 2569 2869 2703 2725 
Q 2847 2585 2919 2406 
Q 2991 2228 2991 2022 
Q 2991 1610 2702 1324 
Q 2413 1038 1994 1038 
Q 1572 1038 1290 1319 
Q 1009 1600 1009 2022 
Q 1009 2441 1296 2731 
Q 1584 3022 2000 3022 
z
" transform="scale(0.015625)"/>
      <path id="DejaVuSans-32" d="M 1228 531 
L 3431 531 
L 3431 0 
L 469 0 
L 469 531 
Q 828 903 1448 1529 
Q 2069 2156 2228 2338 
Q 2531 2678 2651 2914 
Q 2772 3150 2772 3378 
Q 2772 3750 2511 3984 
Q 2250 4219 1831 4219 
Q 1534 4219 1204 4116 
Q 875 4013 500 3803 
L 500 4441 
Q 881 4594 1212 4672 
Q 1544 4750 1819 4750 
Q 2544 4750 2975 4387 
Q 3406 4025 3406 3419 
Q 3406 3131 3298 2873 
Q 3191 2616 2906 2266 
Q 2828 2175 2409 1742 
Q 1991 1309 1228 531 
z
" transform="scale(0.015625)"/>
     </defs>
     <use xlink:href="#DejaVuSans-2218" transform="translate(0 0.78125)"/>
     <use xlink:href="#DejaVuSans-32" transform="translate(63.554688 -15.625) scale(0.7)"/>
    </g>
   </g>
   <g id="text_5">
    <!-- 1 -->
    <g style="fill: #ffffff" transform="translate(90.155 416.2075) scale(0.08 -0.08)">
     <use xlink:href="#DejaVuSerif-31"/>
    </g>
   </g>
   <g id="text_6">
    <!-- 2 -->
    <g style="fill: #ffffff" transform="translate(90.155 331.6075) scale(0.08 -0.08)">
     <use xlink:href="#DejaVuSerif-32"/>
    </g>
   </g>
   <g id="text_7">
    <!-- $=$ -->
    <g style="fill: #ffffff" transform="translate(86.13 507.166875) scale(0.18 -0.18)">
     <defs>
      <path id="DejaVuSans-3d" d="M 678 2906 
L 4684 2906 
L 4684 2381 
L 678 2381 
L 678 2906 
z
M 678 1631 
L 4684 1631 
L 4684 1100 
L 678 1100 
L 678 1631 
z
" transform="scale(0.015625)"/>
     </defs>
     <use xlink:href="#DejaVuSans-3d" transform="translate(19.482422 0.59375)"/>
    </g>
   </g>
   <g id="text_8">
    <!-- 1 -->
    <g style="fill: #ffffff" transform="translate(38.855 601.6075) scale(0.08 -0.08)">
     <use xlink:href="#DejaVuSerif-31"/>
    </g>
   </g>
   <g id="text_9">
    <!-- 2 -->
    <g style="fill: #ffffff" transform="translate(100.415 665.1835) scale(0.08 -0.08)">
     <use xlink:href="#DejaVuSerif-32"/>
    </g>
   </g>
   <g id="text_10">
    <!-- 3 -->
    <g style="fill: #ffffff" transform="translate(100.415 638.1115) scale(0.08 -0.08)">
     <use xlink:href="#DejaVuSerif-33"/>
    </g>
   </g>
   <g id="text_11">
    <!-- 4 -->
    <g style="fill: #ffffff" transform="translate(155.855 704.2075) scale(0.08 -0.08)">
     <defs>
      <path id="DejaVuSerif-34" d="M 2234 1581 
L 2234 4063 
L 641 1581 
L 2234 1581 
z
M 3609 0 
L 1484 0 
L 1484 331 
L 2234 331 
L 2234 1247 
L 197 1247 
L 197 1588 
L 2241 4750 
L 2859 4750 
L 2859 1581 
L 3750 1581 
L 3750 1247 
L 2859 1247 
L 2859 331 
L 3609 331 
L 3609 0 
z
" transform="scale(0.015625)"/>
     </defs>
     <use xlink:href="#DejaVuSerif-34"/>
    </g>
   </g>
  </g>
 </g>
 <defs>
  <clipPath id="pe48acade34">
   <rect x="7.2" y="7.2" width="180" height="720"/>
  </clipPath>
 </defs>
</svg>
